# xmcd
#
# Track frame offsets:
#	150
#	21712
#	61352
#	112352
#	137707
#	204682
#	253857
#	282585
#	307377
#
# Disc length: 4429 seconds
#
# Revision: 0
# Processed by: cddbd v1.5.1PL0 Copyright (c) Steve Scherf et al.
# Submitted via: dBpowerAMP V4.0
#
DISCID=a0114b09
DTITLE=Grateful Dead - Left in The Vaults  Vol  3
DYEAR=1976
DGENRE=Blues
TTITLE0=Wheel \ Cassidy -medley
TTITLE1=Tennessee Jed
TTITLE2=Let It Grow - Drums -medley
TTITLE3=Wharf Rat
TTITLE4=Comes At Time
TTITLE5=Dancing
TTITLE6=Around and Around
TTITLE7=Sugar Magnolia
TTITLE8=US  Blues
EXTD=
EXTT0=
EXTT1=
EXTT2=
EXTT3=
EXTT4=
EXTT5=
EXTT6=
EXTT7=
EXTT8=
PLAYORDER=
